<?xml version="1.0" encoding="utf-8"?>
<!-- Generator: Adobe Illustrator 16.0.0, SVG Export Plug-In . SVG Version: 6.00 Build 0)  -->
<!DOCTYPE svg PUBLIC "-//W3C//DTD SVG 1.1//EN" "http://www.w3.org/Graphics/SVG/1.1/DTD/svg11.dtd">
<svg version="1.1" xmlns="http://www.w3.org/2000/svg" xmlns:xlink="http://www.w3.org/1999/xlink" x="0px" y="0px" width="312px" height="392px" viewBox="0 0 312 392" enable-background="new 0 0 312 392"  xml:space="preserve">
	<g id="svg-logo">
	<g id="svg-logo-laptop">
		<g>
			<path d="M330.813,210.747c0,2.852-1.996,5.155-4.469,5.155h-44.703c-2.471,0-4.471-2.304-4.471-5.155H132.066
				v9.736c0,5.685,13.104,7.116,18.562,7.116H464.11c5.447,0,15.781-1.432,15.781-7.116v-9.736H330.813z M458.829,216.26h-11.518
				c-0.424,0-0.768-0.344-0.768-0.769c0-0.424,0.344-0.768,0.768-0.768h11.518c0.426,0,0.771,0.344,0.771,0.768
				C459.601,215.916,459.255,216.26,458.829,216.26z"/>
			<path d="M430.007,28.67H181.958c-4.771,0-8.64,3.868-8.64,8.64v148.71c0,0.037-0.006,0.073-0.006,0.11v15.715
				c0,2.544,2.062,4.607,4.609,4.607h4.036h3.451h241.139h3.459h4.029c2.545,0,4.609-2.063,4.609-4.607v-3.977
				c0-0.019,0-0.036,0-0.057V37.31C438.646,32.538,434.78,28.67,430.007,28.67z M305.979,32.899c1.535,0,2.779,1.244,2.779,2.778
				c0,1.535-1.244,2.778-2.779,2.778s-2.777-1.243-2.777-2.778C303.202,34.144,304.444,32.899,305.979,32.899z M425.593,192.631
				h-239.22V42.112h239.22V192.631z"/>
		</g>
	</g>
	<path id="svg-logo-tablet" d="M387.9,49.824H224.058c-3.242,0-5.872,2.632-5.872,5.876v123.346c0,3.241,2.63,5.872,5.872,5.872
		H387.9c3.244,0,5.873-2.631,5.873-5.872V55.7C393.773,52.456,391.145,49.824,387.9,49.824z M378.207,171.764H232.971V62.979
		h145.238L378.207,171.764z M386.652,121.408c-2.184,0-3.947-1.771-3.947-3.953c0-2.182,1.764-3.951,3.947-3.951
		s3.951,1.77,3.951,3.951C390.604,119.638,388.836,121.408,386.652,121.408z"/>
	<path id="svg-logo-mobile" d="M319.358,78.927h-27.035c-3.389,0-6.135,2.747-6.135,6.135v64.999
		c0,3.389,2.746,6.135,6.135,6.135h27.035c3.389,0,6.135-2.746,6.135-6.135V85.062C325.493,81.674,322.747,78.927,319.358,78.927z
		 M305.784,153.058c-1.719,0-3.107-1.391-3.107-3.108c0-1.72,1.389-3.108,3.107-3.108c1.717,0,3.111,1.389,3.111,3.108
		C308.896,151.667,307.501,153.058,305.784,153.058z M322.425,141.968h-33.281V91.896h33.281V141.968z"/>
</g>
</svg>
